<?xml version="1.0" encoding="utf-8"?>
<!-- Generator: Adobe Illustrator 28.0.0, SVG Export Plug-In . SVG Version: 6.00 Build 0)  -->
<svg version="1.1" id="Layer_1" xmlns="http://www.w3.org/2000/svg" xmlns:xlink="http://www.w3.org/1999/xlink" x="0px" y="0px"
	 viewBox="0 0 606.5 535.5" style="enable-background:new 0 0 606.5 535.5;" xml:space="preserve">
<style type="text/css">
	.st0{fill:#2660A4;}
	.st1{fill:#22AA79;}
	.st2{fill:#7F8080;}
</style>
<g>
	<g>
		<path class="st0" d="M118.9,366.2l-29.6,66.4h15.8l5.9-14.2h30.8l5.9,14.2h16.1l-29.7-66.4H118.9z M115.8,406.7l10.6-25.4
			l10.5,25.4H115.8z"/>
		<path class="st0" d="M284.8,432.6H301l-29.7-66.4h-15.2l-27.7,62.1l-25.7-32.5l27.5-29.6h-17.1l-29.4,31v-31h-15.3v66.4h15.3
			v-16.8l8.9-9.3l21.3,26.1h12.6h5.3h10.4l5.9-14.2h30.8L284.8,432.6z M253,406.7l10.6-25.4l10.5,25.4H253z"/>
	</g>
	<g>
		<rect x="304" y="393.1" class="st1" width="18.3" height="11.9"/>
		<path class="st1" d="M378.5,402.8c0,6.3-1.3,10.9-3.9,13.7c-2.6,2.8-6.2,4.2-10.9,4.2c-4.7,0-8.3-1.4-10.9-4.2
			c-2.6-2.8-3.9-7.3-3.9-13.7v-36.6h-15.4v37.2c0,9.7,2.7,17.2,8,22.5c5.3,5.3,12.7,7.9,22.1,7.9s16.8-2.6,22.1-7.9
			c5.3-5.2,8-12.7,8-22.5v-37.2h-15.2V402.8z"/>
		<path class="st1" d="M523,432.6h16.1l-29.7-66.4h-15.2l-27.7,62.1l-25.7-32.5l27.5-29.6h-17.1l-29.4,31v-31h-15.3v66.4h15.3v-16.8
			l8.9-9.3l21.3,26.1h12.6h5.3h10.4l5.9-14.2h30.8L523,432.6z M491.1,406.7l10.6-25.4l10.5,25.4H491.1z"/>
	</g>
</g>
<g>
	<polygon class="st2" points="88.1,458 96.9,458 96.9,480.4 101.8,480.4 101.8,458 110.6,458 110.6,453.9 88.1,453.9 	"/>
	<path class="st2" d="M130.8,453.9l-12,26.6h5.1l2.6-6.2h13.3l2.6,6.2h5.2l-12-26.6H130.8z M128.2,470.4l5-11.6l5,11.6H128.2z"/>
	<path class="st2" d="M161.6,458.1l1.5-5.8h-3l-2,5.4c-0.2,0.6-0.4,1.1-0.5,1.4c-0.1,0.4-0.2,0.7-0.2,1c0,0.3-0.1,0.6-0.1,0.9
		c0,0.9,0.3,1.7,0.9,2.2c0.6,0.6,1.3,0.9,2.2,0.9c0.9,0,1.6-0.3,2.2-0.9c0.6-0.6,0.9-1.3,0.9-2.3c0-0.9-0.3-1.7-0.9-2.2
		C162.2,458.4,161.9,458.2,161.6,458.1z"/>
	<polygon class="st2" points="183,453.9 178.1,453.9 178.1,480.4 196.9,480.4 196.9,476.3 183,476.3 	"/>
	<rect x="210.4" y="453.9" class="st2" width="4.9" height="26.6"/>
	<polygon class="st2" points="257,453.9 246.7,471.5 236.1,453.9 232.1,453.9 232.1,480.4 236.8,480.4 236.8,463.1 245.5,477.4 
		247.7,477.4 256.4,462.8 256.5,480.4 261.1,480.4 261.1,453.9 	"/>
	<polygon class="st2" points="322.9,453.9 312.5,471.5 302,453.9 297.9,453.9 297.9,480.4 302.6,480.4 302.6,463.1 311.4,477.4 
		313.6,477.4 322.3,462.8 322.3,480.4 327,480.4 327,453.9 	"/>
	<path class="st2" d="M352,453.9l-12,26.6h5.1l2.6-6.2H361l2.6,6.2h5.2l-12-26.6H352z M349.4,470.4l5-11.6l5,11.6H349.4z"/>
	<path class="st2" d="M398.7,471.6c1.7-0.7,3-1.8,3.9-3.2c0.9-1.4,1.4-3.1,1.4-5c0-3-1-5.3-3-6.9c-2-1.7-4.8-2.5-8.3-2.5h-10.9v26.6
		h4.9v-7.7h6c0.4,0,0.7,0,1,0l5.4,7.8h5.3l-6.1-8.7C398.5,471.7,398.6,471.6,398.7,471.6z M397.4,459.4c1.1,0.9,1.7,2.2,1.7,3.9
		c0,1.7-0.6,3-1.7,3.9c-1.1,0.9-2.7,1.4-4.9,1.4h-5.8V458h5.8C394.6,458,396.3,458.5,397.4,459.4z"/>
	<polygon class="st2" points="442.7,453.9 437.1,453.9 424,467.5 424,453.9 419.1,453.9 419.1,480.4 424,480.4 424,473.6 
		428.2,469.3 437.6,480.4 443.4,480.4 431.5,465.7 	"/>
	<path class="st2" d="M463.4,453.9l-12,26.6h5.1l2.6-6.2h13.3l2.6,6.2h5.2l-12-26.6H463.4z M460.8,470.4l5-11.6l5,11.6H460.8z"/>
	<polygon class="st2" points="513.3,457.2 513.3,453.9 491.4,453.9 491.4,458 506.8,458 491.2,477.1 491.2,480.4 513.8,480.4 
		513.8,476.3 497.7,476.3 	"/>
	<rect x="527.9" y="453.9" class="st2" width="4.9" height="26.6"/>
</g>
<g>
	<g>
		<path class="st1" d="M349,147.9c13.1-0.2,22.4-11.4,21.9-22.3c-0.5-11.1-10.1-20.4-21.7-20.2c-11.1-0.4-22,8.9-21.5,22.3
			C328.2,138.4,338.1,148,349,147.9z"/>
		<path class="st1" d="M456.6,55h-86.7c-29.2,0-54.3,19.9-65.6,48.5v2.7c0.2,0,0.4,0,0.6,0c9,0.1,17.5-4.1,23-11.3
			c0.7-0.9,1.5-1.9,2.3-2.8c10.6-12.2,24.7-18.9,39.7-18.9h69l-17.3,184.8l-45.7,5.3c0.1-16.4,0.2-32.8,0.4-49.2
			c0.1-8.1,1.2-16.3,1.8-24.4c0.2,0,0.4,0,0.7,0c2.4,4.9,4.5,9.8,4.5,15.5c0,10.8-0.1,21.6-0.1,32.4c0,4.3,1.8,7.2,5.2,8.5
			c5.5,2,10.8-2,10.8-8.4c0.1-12,0-23.9,0-35.9c0-0.7,0-1.5-0.2-2.2c-2.9-16-10.8-29.2-22.1-40.6c-2.4-2.4-5.5-3.8-8.9-3.8
			c-13.2,0-26.4-0.1-39.6,0c-4.6,0-8.2,2-10.2,6.6c-0.6,1.5-1.3,2.7-2,3.9c-1.3,3.6-2.8,6.6-4.6,8.9c-3.6,4.7-7.5,6.2-10.7,7.5
			c-3,1.2-4.3,1.8-5.2,3.9c-1,2.4-2.6,12.3-0.9,12.1c0,0,0,0,0,0c1.3-0.2,16.5,0.9,24.9-12.3c0.2,0.7,0.3,1,0.3,1.3
			c0.9,13.8,2.3,27.6,2.5,41.5c0.4,29.4,0.1,37.5,0.1,66.9c0,7.1-0.1,14.3,0.2,21.4c0.2,4.5,3.3,8,7.2,9.1c5.1,1.4,9.9,0,12.8-3.7
			c1.9-2.5,2.4-5.4,2.4-8.4c0-27.3,0-33.4,0-60.7c0-0.8-0.1-1.7,0.1-2.5c0.5-1.8,1.6-3.1,3.6-3.2c1.9-0.1,3.1,1.1,3.7,2.8
			c0.3,0.8,0.2,1.6,0.2,2.5c0,9.1,0.1,18.1,0.1,27.2c0,18.9-0.1,16.4-0.1,35.3c0,5.7,3.6,10.3,8.7,11.2c6.3,1.1,11.6-1.7,13.3-7.3
			c0.6-1.9,0.7-4.1,0.7-6.1c0.1-14.2,0-7.1,0-21.4c0-3.3,0-6.6,0-9.9l59.9-6.8L456.6,55z"/>
	</g>
	<g>
		<path class="st0" d="M308.5,155.4c-0.9-0.1-1.8-0.1-2.7-0.1c-21.3,0-42.7,0-64-0.2c-5.5,0-9.9,1.9-13.2,6.1
			c-3.6,4.5-7.2,8.9-10.3,13.7c-6.7,10.3-10.9,21.5-10.4,34.2c0.4,9.5,0,18.9,0.1,28.4c0,5,3.3,8.8,7.7,9.2c4.5,0.4,7.9-2.5,8.8-7.7
			c0.2-1,0.2-2,0.2-3c0-10.5,0.1-20.9,0-31.4c0-5.5,2.3-10.2,4.6-14.8c0.3,0,0.6,0,0.9,0.1c0.7,12.3,1.9,24.6,2,36.9
			c0.1,14.8,0.1,26.1,0.1,36.7l-45.4-5.3L169.2,73.3h69.3c15,0,29.1,6.7,39.7,18.9c0.8,0.9,1.5,1.8,2.3,2.8c5.5,7.1,14,11.4,23,11.3
			c0.2,0,0.4,0,0.6,0v-2.7C292.8,74.9,267.7,55,238.5,55h-87.1l21,219.9l59.8,6.8c0,9.7-0.1,20.1-0.1,33.3c0,8,6.6,13.2,14.4,11.2
			c5.2-1.3,8.1-5.4,8.1-11.3c0-25.3,0-29.4,0-54.8c0-2.6,0-5.1,0-7.7c0-2.8,1.7-4.9,3.9-4.9c2.3,0,3.8,1.8,3.9,4.9
			c0,0.2,0,0.3,0,0.5c0,11.7,0,23.4,0,35.1c0,16.1,0,11,0,27.1c0,4,1.3,7.4,4.7,9.6c3.9,2.5,8,2.5,12.1,0.4
			c4.2-2.1,5.6-5.9,5.6-10.3c0.1-10.9-0.1-0.5,0.1-11.4c0.4-31.4-1.1-62.8,1.1-94.1c0.4-6.4,1.1-12.7,1.7-19.1
			c0-0.5,0.1-0.9,0.1-1.4c0,0,0,0,0,0c0.3-3.2,0.8-6.4,0.9-9.7c0.1-4.4,7.4-2.7,9.6-3.5c4.7-1.8,9.9-3.8,13.1-18.9
			C310.4,156,309.4,155.5,308.5,155.4z"/>
		<path class="st0" d="M259.5,105.3c-11.9-0.1-21.7,9.5-21.8,21.2c-0.1,11.4,9.7,21.3,20.8,21.4c12.6,0,22.4-9.1,22.5-21
			C281.1,114.8,271.7,105.3,259.5,105.3z"/>
	</g>
</g>
</svg>
