<?xml version="1.0" encoding="utf-8"?>
<!-- Generator: Adobe Illustrator 28.0.0, SVG Export Plug-In . SVG Version: 6.00 Build 0)  -->
<svg version="1.1" id="Layer_1" xmlns="http://www.w3.org/2000/svg" xmlns:xlink="http://www.w3.org/1999/xlink" x="0px" y="0px"
	 viewBox="0 0 1074.8 336.7" style="enable-background:new 0 0 1074.8 336.7;" xml:space="preserve">
<style type="text/css">
	.st0{fill:#2660A4;}
	.st1{fill:#22AA79;}
	.st2{fill:#7F8080;}
</style>
<g>
	<g>
		<path class="st0" d="M418.2,84.1l-43.4,97.3h23.1l8.7-20.9h45.1l8.6,20.9H484l-43.5-97.3H418.2z M413.7,143.5l15.5-37.2l15.4,37.2
			H413.7z"/>
		<path class="st0" d="M661.2,181.4h23.6l-43.5-97.3h-22.2l-40.6,91l-37.7-47.7l40.3-43.4h-25L513,129.5V84.1h-22.4v97.3H513v-24.6
			l13-13.6l31.2,38.2h18.5h7.8h15.3l8.7-20.9h45.1L661.2,181.4z M614.6,143.5l15.5-37.2l15.4,37.2H614.6z"/>
	</g>
	<g>
		<rect x="689.3" y="123.4" class="st1" width="26.8" height="17.4"/>
		<path class="st1" d="M798.4,137.8c0,9.3-1.9,15.9-5.7,20c-3.8,4.1-9.1,6.1-16,6.1c-6.9,0-12.2-2-16-6.1c-3.8-4.1-5.7-10.7-5.7-20
			V84.1h-22.5v54.5c0,14.3,3.9,25.3,11.7,32.9c7.8,7.7,18.6,11.5,32.4,11.5c13.8,0,24.6-3.8,32.4-11.5c7.8-7.7,11.7-18.7,11.7-32.9
			V84.1h-22.2V137.8z"/>
		<path class="st1" d="M1010,181.4h23.6l-43.5-97.3h-22.2l-40.6,91l-37.7-47.7l40.3-43.4h-25l-43.1,45.4V84.1h-22.4v97.3h22.4v-24.6
			l13-13.6l31.2,38.2h18.5h7.8h15.3l8.7-20.9h45.1L1010,181.4z M963.4,143.5l15.5-37.2l15.4,37.2H963.4z"/>
	</g>
</g>
<g>
	<polygon class="st2" points="373,218.6 385.9,218.6 385.9,251.4 393.2,251.4 393.2,218.6 406.1,218.6 406.1,212.5 373,212.5 	"/>
	<path class="st2" d="M435.6,212.5l-17.5,38.9h7.5l3.9-9h19.5l3.9,9h7.6l-17.6-38.9H435.6z M431.8,236.7l7.3-17l7.3,17H431.8z"/>
	<path class="st2" d="M480.7,218.7l2.2-8.5h-4.4l-2.9,7.9c-0.3,0.9-0.6,1.6-0.8,2.1c-0.2,0.6-0.3,1-0.4,1.4s-0.1,0.8-0.1,1.3
		c0,1.3,0.4,2.4,1.3,3.3c0.9,0.9,1.9,1.3,3.3,1.3c1.3,0,2.3-0.4,3.2-1.3c0.9-0.8,1.3-1.9,1.3-3.3c0-1.4-0.4-2.5-1.3-3.3
		C481.6,219.2,481.2,218.9,480.7,218.7z"/>
	<polygon class="st2" points="512.1,212.5 504.9,212.5 504.9,251.4 532.5,251.4 532.5,245.3 512.1,245.3 	"/>
	<rect x="552.2" y="212.5" class="st2" width="7.2" height="38.9"/>
	<polygon class="st2" points="620.5,212.5 605.3,238.3 589.9,212.5 583.9,212.5 583.9,251.4 590.8,251.4 590.8,226 603.6,247 
		606.9,247 619.6,225.6 619.7,251.4 626.5,251.4 626.5,212.5 	"/>
	<polygon class="st2" points="717,212.5 701.8,238.3 686.4,212.5 680.4,212.5 680.4,251.4 687.3,251.4 687.3,226 700.1,247 
		703.3,247 716.1,225.6 716.2,251.4 723,251.4 723,212.5 	"/>
	<path class="st2" d="M759.5,212.5L742,251.4h7.5l3.9-9h19.5l3.9,9h7.6l-17.6-38.9H759.5z M755.8,236.7l7.3-17l7.3,17H755.8z"/>
	<path class="st2" d="M828.1,238.4c2.5-1.1,4.4-2.7,5.7-4.7c1.3-2.1,2-4.5,2-7.4c0-4.3-1.5-7.7-4.4-10.2c-2.9-2.4-7-3.7-12.2-3.7
		h-16v38.9h7.2v-11.3h8.8c0.5,0,1,0,1.5-0.1l7.9,11.4h7.8l-8.9-12.8C827.7,238.6,827.9,238.5,828.1,238.4z M826.1,220.6
		c1.6,1.3,2.4,3.2,2.4,5.7c0,2.4-0.8,4.4-2.4,5.7c-1.6,1.4-4,2.1-7.2,2.1h-8.5v-15.5h8.5C822.1,218.6,824.5,219.3,826.1,220.6z"/>
	<polygon class="st2" points="892.4,212.5 884.3,212.5 865.1,232.5 865.1,212.5 857.8,212.5 857.8,251.4 865.1,251.4 865.1,241.4 
		871.3,235.1 885,251.4 893.4,251.4 876.1,229.9 	"/>
	<path class="st2" d="M922.7,212.5l-17.5,38.9h7.5l3.9-9H936l3.9,9h7.6l-17.6-38.9H922.7z M919,236.7l7.3-17l7.3,17H919z"/>
	<polygon class="st2" points="995.9,217.3 995.9,212.5 963.8,212.5 963.8,218.6 986.3,218.6 963.4,246.6 963.4,251.4 996.6,251.4 
		996.6,245.3 973,245.3 	"/>
	<rect x="1017.3" y="212.5" class="st2" width="7.2" height="38.9"/>
</g>
<g>
	<g>
		<path class="st1" d="M229.7,131.9c12.8-0.2,21.9-11.2,21.5-21.8c-0.5-10.9-9.9-20-21.2-19.8c-10.9-0.4-21.6,8.7-21.1,21.8
			C209.3,122.6,219,132,229.7,131.9z"/>
		<path class="st1" d="M335.1,40.9h-85c-28.6,0-53.2,19.5-64.3,47.5v2.6c0.2,0,0.4,0,0.6,0c8.8,0.1,17.1-4.1,22.6-11.1
			c0.7-0.9,1.5-1.8,2.2-2.7c10.4-12,24.2-18.5,38.9-18.5h67.6l-16.9,181.1l-44.8,5.2c0.1-16.1,0.2-32.1,0.4-48.2
			c0.1-8,1.1-16,1.7-23.9c0.2,0,0.4,0,0.6,0c2.4,4.8,4.4,9.6,4.4,15.1c0,10.6-0.1,21.2-0.1,31.7c0,4.3,1.8,7.1,5.1,8.3
			c5.4,1.9,10.6-2,10.6-8.2c0.1-11.7,0-23.4,0-35.2c0-0.7,0-1.5-0.2-2.2c-2.8-15.7-10.6-28.7-21.6-39.8c-2.4-2.4-5.3-3.7-8.8-3.7
			c-12.9,0-25.9-0.1-38.8,0c-4.5,0-8,2-10,6.4c-0.6,1.4-1.3,2.7-2,3.8c-1.2,3.6-2.7,6.5-4.5,8.8c-3.5,4.6-7.4,6.1-10.5,7.3
			c-2.9,1.1-4.2,1.7-5.1,3.8c-1,2.3-2.6,12-0.9,11.9c0,0,0,0,0,0c1.3-0.2,16.2,0.8,24.4-12c0.2,0.7,0.3,1,0.3,1.3
			c0.9,13.5,2.3,27.1,2.5,40.6c0.4,28.8,0.1,36.8,0.1,65.6c0,7-0.1,14,0.2,21c0.2,4.4,3.2,7.9,7.1,9c5,1.4,9.7,0,12.5-3.6
			c1.9-2.4,2.4-5.3,2.4-8.3c0-26.8,0-32.7,0-59.5c0-0.8-0.1-1.7,0.1-2.4c0.5-1.8,1.6-3.1,3.6-3.1c1.9-0.1,3,1.1,3.6,2.7
			c0.3,0.7,0.2,1.6,0.2,2.4c0,8.9,0.1,17.7,0.1,26.6c0,18.5-0.1,16.1-0.1,34.6c0,5.6,3.6,10.1,8.5,11c6.2,1,11.4-1.7,13-7.2
			c0.6-1.9,0.7-4,0.7-6c0.1-13.9,0-7,0-20.9c0-3.2,0-6.5,0-9.7l58.7-6.7L335.1,40.9z"/>
	</g>
	<g>
		<path class="st0" d="M190,139.2c-0.9-0.1-1.8-0.1-2.7-0.1c-20.9,0-41.8,0-62.7-0.2c-5.4,0-9.7,1.9-13,6
			c-3.5,4.4-7.1,8.7-10.1,13.4c-6.6,10.1-10.7,21-10.2,33.5c0.4,9.3,0,18.6,0.1,27.8c0,4.9,3.2,8.6,7.6,9c4.4,0.4,7.7-2.5,8.6-7.5
			c0.2-1,0.2-1.9,0.2-2.9c0-10.3,0.1-20.5,0-30.8c0-5.4,2.2-10,4.5-14.5c0.3,0,0.6,0,0.8,0.1c0.7,12.1,1.9,24.1,2,36.2
			c0.1,14.5,0.1,25.5,0.1,36l-44.5-5.2L53.5,58.8h67.9c14.7,0,28.5,6.6,38.9,18.5c0.8,0.9,1.5,1.8,2.2,2.7
			c5.4,7,13.7,11.1,22.6,11.1c0.2,0,0.4,0,0.6,0v-2.6c-11.1-28.1-35.7-47.6-64.3-47.6H36.1l20.5,215.5l58.6,6.6
			c0,9.5-0.1,19.7-0.1,32.7c0,7.8,6.5,12.9,14.1,11c5.1-1.3,8-5.2,8-11.1c0-24.8,0-28.8,0-53.6c0-2.5,0-5,0-7.6
			c0-2.7,1.7-4.8,3.8-4.8c2.2,0,3.7,1.8,3.8,4.8c0,0.2,0,0.3,0,0.5c0,11.5,0,23,0,34.4c0,15.8,0,10.8,0,26.5c0,3.9,1.2,7.2,4.6,9.4
			c3.8,2.4,7.9,2.5,11.8,0.4c4.1-2.1,5.5-5.8,5.5-10.1c0.1-10.7-0.1-0.5,0.1-11.2c0.4-30.7-1.1-61.5,1-92.2c0.4-6.2,1-12.5,1.6-18.7
			c0-0.5,0.1-0.9,0.1-1.4c0,0,0,0,0,0c0.3-3.2,0.8-6.3,0.9-9.5c0.1-4.3,7.3-2.6,9.4-3.4c4.6-1.8,9.7-3.7,12.8-18.5
			C191.9,139.8,190.9,139.4,190,139.2z"/>
		<path class="st0" d="M142,90.1c-11.7-0.1-21.2,9.3-21.3,20.8c-0.1,11.1,9.5,20.9,20.4,21c12.3,0,21.9-8.9,22-20.6
			C163.2,99.5,153.9,90.2,142,90.1z"/>
	</g>
</g>
</svg>
