<svg xmlns="http://www.w3.org/2000/svg" viewBox="6 2 334.07 96" role="img" aria-label="ZYRON"><defs><linearGradient id="gz" gradientUnits="userSpaceOnUse" x1="14" y1="10" x2="86" y2="90"><stop offset="0" stop-color="#2563EB"/><stop offset="1" stop-color="#06B6D4"/></linearGradient></defs><path fill="url(#gz)" d="M14 10H86V32L61 57L43 39L50 32H14ZM86 90H14V68L39 43L57 61L50 68H86Z"/><path fill="#0F172A" d="M110 64V54L136.29 21.93V20.93H110.79V14H144.21V24L117.93 56.07V57.07H144.5V64ZM168.07 64V45.86L150.71 14H159.43L171.43 36.64H172.5L184.5 14H193.21L175.86 45.86V64ZM201.36 64V14H222.36Q227 14 230.5 15.64Q234 17.29 236 20.25Q238 23.21 238 27.36V28.14Q238 32.86 235.75 35.68Q233.5 38.5 230.29 39.64V40.79Q233 40.93 234.64 42.64Q236.29 44.36 236.29 47.43V64H228.57V48.5Q228.57 46.57 227.54 45.43Q226.5 44.29 224.29 44.29H209.07V64ZM209.07 37.29H221.5Q225.64 37.29 227.93 35.21Q230.21 33.14 230.21 29.43V28.86Q230.21 25.21 227.96 23.11Q225.71 21 221.5 21H209.07ZM267.43 65Q258.21 65 252.79 59.82Q247.36 54.64 247.36 44.86V33.14Q247.36 23.36 252.79 18.18Q258.21 13 267.43 13Q276.64 13 282.11 18.18Q287.57 23.36 287.57 33.14V44.86Q287.57 54.64 282.11 59.82Q276.64 65 267.43 65ZM267.43 58.07Q273.29 58.07 276.54 54.61Q279.79 51.14 279.79 45.14V32.86Q279.79 26.86 276.54 23.39Q273.29 19.93 267.43 19.93Q261.57 19.93 258.32 23.39Q255.07 26.86 255.07 32.86V45.14Q255.07 51.14 258.32 54.61Q261.57 58.07 267.43 58.07ZM298.86 64V14H313.71L327.29 58.86H328.43V14H336.07V64H321.21L307.64 19.07H306.5V64Z"/><path fill="#64748B" d="M110 86V85.04H111.26V77.96H110V77H114.51Q115.3 77 115.9 77.28Q116.51 77.57 116.85 78.07Q117.2 78.58 117.2 79.26V79.37Q117.2 80 116.96 80.4Q116.72 80.81 116.38 81.04Q116.03 81.27 115.72 81.36V81.54Q116.04 81.62 116.39 81.84Q116.74 82.07 116.97 82.48Q117.21 82.89 117.21 83.52V83.65Q117.21 84.39 116.86 84.91Q116.51 85.43 115.9 85.72Q115.28 86 114.5 86ZM112.34 80.97H114.42Q115.21 80.97 115.66 80.58Q116.12 80.19 116.12 79.55V79.42Q116.12 78.76 115.66 78.37Q115.21 77.98 114.42 77.98H112.34ZM112.34 85.02H114.38Q115.23 85.02 115.68 84.62Q116.13 84.23 116.13 83.54V83.43Q116.13 82.75 115.68 82.35Q115.23 81.95 114.38 81.95H112.34ZM124.74 86V77H130.28V77.98H125.82V80.99H129.92V81.96H125.82V85.02H130.35V86ZM140.15 86V82.57L136.95 77H138.19L140.6 81.31H140.78L143.2 77H144.43L141.23 82.57V86ZM154.73 86.18Q153.12 86.18 152.16 85.25Q151.2 84.32 151.2 82.53V80.47Q151.2 78.68 152.16 77.75Q153.12 76.82 154.73 76.82Q156.35 76.82 157.31 77.75Q158.26 78.68 158.26 80.47V82.53Q158.26 84.32 157.31 85.25Q156.35 86.18 154.73 86.18ZM154.73 85.22Q155.9 85.22 156.54 84.52Q157.18 83.81 157.18 82.57V80.43Q157.18 79.19 156.54 78.48Q155.9 77.78 154.73 77.78Q153.57 77.78 152.93 78.48Q152.28 79.19 152.28 80.43V82.57Q152.28 83.81 152.93 84.52Q153.57 85.22 154.73 85.22ZM165.88 86V77H167.98L171.12 85.32H171.28V77H172.35V86H170.25L167.13 77.67H166.95V86ZM179.81 86V85.04H181.07V77.96H179.81V77H183.32Q185.1 77 186.07 77.9Q187.04 78.8 187.04 80.66V82.34Q187.04 84.21 186.07 85.11Q185.1 86 183.32 86ZM182.15 85.02H183.32Q184.62 85.02 185.3 84.39Q185.97 83.75 185.97 82.39V80.63Q185.97 79.26 185.3 78.63Q184.62 77.99 183.32 77.99H182.15ZM203.71 86V77H204.79V86ZM212.66 86V77H214.76L217.9 85.32H218.06V77H219.13V86H217.03L213.91 77.67H213.73V86ZM227.02 86V77H229.11L232.25 85.32H232.42V77H233.49V86H231.39L228.27 77.67H228.09V86ZM244.64 86.18Q243.03 86.18 242.08 85.25Q241.12 84.32 241.12 82.53V80.47Q241.12 78.68 242.08 77.75Q243.03 76.82 244.64 76.82Q246.26 76.82 247.22 77.75Q248.18 78.68 248.18 80.47V82.53Q248.18 84.32 247.22 85.25Q246.26 86.18 244.64 86.18ZM244.64 85.22Q245.81 85.22 246.45 84.52Q247.1 83.81 247.1 82.57V80.43Q247.1 79.19 246.45 78.48Q245.81 77.78 244.64 77.78Q243.48 77.78 242.84 78.48Q242.2 79.19 242.2 80.43V82.57Q242.2 83.81 242.84 84.52Q243.48 85.22 244.64 85.22ZM257.8 86 255.09 77H256.21L258.66 85.34H258.83L261.29 77H262.4L259.69 86ZM268.87 86 271.64 77H273.55L276.32 86H275.21L274.51 83.72H270.68L269.99 86ZM270.96 82.75H274.23L272.69 77.66H272.51ZM285.7 86V77.98H282.81V77H289.68V77.98H286.78V86ZM296.87 86V77H297.95V86ZM309.09 86.18Q307.49 86.18 306.53 85.25Q305.57 84.32 305.57 82.53V80.47Q305.57 78.68 306.53 77.75Q307.49 76.82 309.09 76.82Q310.71 76.82 311.67 77.75Q312.63 78.68 312.63 80.47V82.53Q312.63 84.32 311.67 85.25Q310.71 86.18 309.09 86.18ZM309.09 85.22Q310.26 85.22 310.91 84.52Q311.55 83.81 311.55 82.57V80.43Q311.55 79.19 310.91 78.48Q310.26 77.78 309.09 77.78Q307.94 77.78 307.29 78.48Q306.65 79.19 306.65 80.43V82.57Q306.65 83.81 307.29 84.52Q307.94 85.22 309.09 85.22ZM320.25 86V77H322.35L325.48 85.32H325.65V77H326.72V86H324.62L321.5 77.67H321.32V86ZM335.2 86.18Q334.82 86.18 334.57 85.94Q334.32 85.69 334.32 85.31Q334.32 84.92 334.57 84.68Q334.82 84.43 335.2 84.43Q335.58 84.43 335.83 84.68Q336.07 84.92 336.07 85.31Q336.07 85.69 335.83 85.94Q335.58 86.18 335.2 86.18Z"/></svg>